<svg xmlns="http://www.w3.org/2000/svg" xmlns:xlink="http://www.w3.org/1999/xlink" width="820" height="345.65"><rect width="820" height="345.65" rx="0" ry="0" class="a"/><svg height="325.65" viewBox="0 0 80 32.565" width="800" x="10" xmlns="http://www.w3.org/2000/svg" xmlns:xlink="http://www.w3.org/1999/xlink" y="10"><style>@keyframes e{0%{transform:translateX(0)}.1%{transform:translateX(-80px)}25.5%{transform:translateX(-160px)}36.1%{transform:translateX(-240px)}49.2%{transform:translateX(-320px)}to{transform:translateX(-400px)}}.a{fill:#282d35}.c{fill:#b9c0cb;white-space:pre}</style><g font-family="Monaco,Consolas,Menlo,'Bitstream Vera Sans Mono','Powerline Symbols',monospace" font-size="1.67"><defs><symbol id="1"><text y="1.67" class="c">$</text><text x="2.004" y="1.67" class="c">unbuffer</text><text x="11.022" y="1.67" class="c">docker-compose</text><text x="26.052" y="1.67" class="c">pull</text><text x="31.062" y="1.67" class="c">|</text><text x="33.066" y="1.67" class="c">sed</text><text x="37.074" y="1.67" class="c">-r</text><text x="40.08" y="1.67" class="c">-e</text><text x="43.086" y="1.67" class="c">&apos;s/\x0d/\\r/g&apos;</text><text x="58.116" y="1.67" class="c">-e</text><text x="61.122" y="1.67" class="c">&apos;s/\x1b\[/\\e\[/g&apos;</text></symbol><symbol id="2"><text y="1.67" class="c">Pulling</text><text x="8.016" y="1.67" class="c">zulu-jdk-15</text><text x="20.04" y="1.67" class="c">...</text><text x="24.048" y="1.67" class="c">\r</text></symbol><symbol id="3"><text y="1.67" class="c">Pulling</text><text x="8.016" y="1.67" class="c">zulu-jdk-11</text><text x="20.04" y="1.67" class="c">...</text><text x="24.048" y="1.67" class="c">\r</text></symbol><symbol id="4"><text y="1.67" class="c">Pulling</text><text x="8.016" y="1.67" class="c">zulu-jdk-8</text><text x="20.04" y="1.67" class="c">...</text><text x="24.048" y="1.67" class="c">\r</text></symbol><symbol id="5"><text y="1.67" class="c">\e[2A\e[2K\rPulling</text><text x="20.04" y="1.67" class="c">zulu-jdk-11</text><text x="32.064" y="1.67" class="c">...</text><text x="36.072" y="1.67" class="c">pulling</text><text x="44.088" y="1.67" class="c">from</text><text x="49.098" y="1.67" class="c">azul/zulu-openjdk\r\e[2B\e[2A\e</text></symbol><symbol id="6"><text y="1.67" class="c">[2K\rPulling</text><text x="13.026" y="1.67" class="c">zulu-jdk-11</text><text x="25.05" y="1.67" class="c">...</text><text x="29.058" y="1.67" class="c">digest:</text><text x="37.074" y="1.67" class="c">sha256:315e0a2a7b6bcc2343...\r\e[2B\e[2A\e[</text></symbol><symbol id="7"><text y="1.67" class="c">2K\rPulling</text><text x="12.024" y="1.67" class="c">zulu-jdk-11</text><text x="24.048" y="1.67" class="c">...</text><text x="28.056" y="1.67" class="c">status:</text><text x="36.072" y="1.67" class="c">image</text><text x="42.084" y="1.67" class="c">is</text><text x="45.09" y="1.67" class="c">up</text><text x="48.096" y="1.67" class="c">to</text><text x="51.102" y="1.67" class="c">date</text><text x="56.112" y="1.67" class="c">for</text><text x="60.12" y="1.67" class="c">a...\r\e[2B\e[2A\e[2</text></symbol><symbol id="8"><text y="1.67" class="c">K\rPulling</text><text x="11.022" y="1.67" class="c">zulu-jdk-11</text><text x="23.046" y="1.67" class="c">...</text><text x="27.054" y="1.67" class="c">\e[32mdone\e[0m\r\e[2B\e[1A\e[2K\rPulling</text><text x="69.138" y="1.67" class="c">zulu-jdk-8</text></symbol><symbol id="9"><text x="1.002" y="1.67" class="c">...</text><text x="5.01" y="1.67" class="c">pulling</text><text x="13.026" y="1.67" class="c">from</text><text x="18.036" y="1.67" class="c">azul/zulu-openjdk\r\e[1B\e[1A\e[2K\rPulling</text><text x="62.124" y="1.67" class="c">zulu-jdk-8</text><text x="74.148" y="1.67" class="c">...</text><text x="78.156" y="1.67" class="c">di</text></symbol><symbol id="10"><text y="1.67" class="c">gest:</text><text x="6.012" y="1.67" class="c">sha256:13d16ca0335fbe1df3...\r\e[1B\e[1A\e[2K\rPulling</text><text x="61.122" y="1.67" class="c">zulu-jdk-8</text><text x="73.146" y="1.67" class="c">...</text><text x="77.154" y="1.67" class="c">sta</text></symbol><symbol id="11"><text y="1.67" class="c">tus:</text><text x="5.01" y="1.67" class="c">image</text><text x="11.022" y="1.67" class="c">is</text><text x="14.028" y="1.67" class="c">up</text><text x="17.034" y="1.67" class="c">to</text><text x="20.04" y="1.67" class="c">date</text><text x="25.05" y="1.67" class="c">for</text><text x="29.058" y="1.67" class="c">a...\r\e[1B\e[1A\e[2K\rPulling</text><text x="60.12" y="1.67" class="c">zulu-jdk-8</text><text x="72.144" y="1.67" class="c">...</text><text x="76.152" y="1.67" class="c">\e[3</text></symbol><symbol id="12"><text y="1.67" class="c">2mdone\e[0m\r\e[1B\e[3A\e[2K\rPulling</text><text x="38.076" y="1.67" class="c">zulu-jdk-15</text><text x="50.1" y="1.67" class="c">...</text><text x="54.108" y="1.67" class="c">pulling</text><text x="62.124" y="1.67" class="c">from</text><text x="67.134" y="1.67" class="c">azul/zulu-ope</text></symbol><symbol id="13"><text y="1.67" class="c">njdk\r\e[3B\e[3A\e[2K\rPulling</text><text x="31.062" y="1.67" class="c">zulu-jdk-15</text><text x="43.086" y="1.67" class="c">...</text><text x="47.094" y="1.67" class="c">digest:</text><text x="55.11" y="1.67" class="c">sha256:bf2d25e46d2c9fc373</text></symbol><symbol id="14"><text y="1.67" class="c">...\r\e[3B\e[3A\e[2K\rPulling</text><text x="30.06" y="1.67" class="c">zulu-jdk-15</text><text x="42.084" y="1.67" class="c">...</text><text x="46.092" y="1.67" class="c">status:</text><text x="54.108" y="1.67" class="c">image</text><text x="60.12" y="1.67" class="c">is</text><text x="63.126" y="1.67" class="c">up</text><text x="66.132" y="1.67" class="c">to</text><text x="69.138" y="1.67" class="c">date</text><text x="74.148" y="1.67" class="c">for</text><text x="78.156" y="1.67" class="c">a.</text></symbol><symbol id="15"><text y="1.67" class="c">..\r\e[3B\e[3A\e[2K\rPulling</text><text x="29.058" y="1.67" class="c">zulu-jdk-15</text><text x="41.082" y="1.67" class="c">...</text><text x="45.09" y="1.67" class="c">\e[32mdone\e[0m\r\e[3B</text></symbol><symbol id="a"><path fill="transparent" d="M0 0h80v16H0z"/></symbol></defs><path class="a" d="M0 0h80v32.565H0z"/><g style="animation-duration:3.936702s;animation-iteration-count:infinite;animation-name:e;animation-timing-function:steps(1,end)"><svg width="480"><svg><use xlink:href="#a"/></svg><svg x="80"><use xlink:href="#a"/><text y="1.67" class="c">$</text></svg><svg x="160"><use xlink:href="#a"/><use xlink:href="#1"/></svg><svg x="240"><use xlink:href="#a"/><use xlink:href="#1"/><use xlink:href="#2" y="2.171"/><use xlink:href="#3" y="4.342"/><use xlink:href="#4" y="6.513"/></svg><svg x="320"><use xlink:href="#a"/><use xlink:href="#1"/><use xlink:href="#2" y="2.171"/><use xlink:href="#3" y="4.342"/><use xlink:href="#4" y="6.513"/><use xlink:href="#5" y="8.684"/><use xlink:href="#6" y="10.855"/><use xlink:href="#7" y="13.026"/><use xlink:href="#8" y="15.197"/><use xlink:href="#9" y="17.368"/><use xlink:href="#10" y="19.539"/><use xlink:href="#11" y="21.71"/><use xlink:href="#12" y="23.881"/><use xlink:href="#13" y="26.052"/><use xlink:href="#14" y="28.223"/><use xlink:href="#15" y="30.394"/></svg><svg x="400"><use xlink:href="#a"/><use xlink:href="#1"/><use xlink:href="#2" y="2.171"/><use xlink:href="#3" y="4.342"/><use xlink:href="#4" y="6.513"/><use xlink:href="#5" y="8.684"/><use xlink:href="#6" y="10.855"/><use xlink:href="#7" y="13.026"/><use xlink:href="#8" y="15.197"/><use xlink:href="#9" y="17.368"/><use xlink:href="#10" y="19.539"/><use xlink:href="#11" y="21.71"/><use xlink:href="#12" y="23.881"/><use xlink:href="#13" y="26.052"/><use xlink:href="#14" y="28.223"/><use xlink:href="#15" y="30.394"/></svg></svg></g></g></svg></svg>