<svg xmlns="http://www.w3.org/2000/svg" xmlns:xlink="http://www.w3.org/1999/xlink" width="820" height="193.68"><rect width="820" height="193.68" rx="0" ry="0" class="a"/><svg height="173.68" viewBox="0 0 80 17.368" width="800" x="10" xmlns="http://www.w3.org/2000/svg" xmlns:xlink="http://www.w3.org/1999/xlink" y="10"><style>@keyframes f{0%{transform:translateX(0)}.1%{transform:translateX(-80px)}23.5%{transform:translateX(-160px)}25.8%{transform:translateX(-240px)}35.6%{transform:translateX(-320px)}41.7%{transform:translateX(-720px)}44.3%{transform:translateX(-1200px)}51.5%{transform:translateX(-1520px)}51.6%{transform:translateX(-1680px)}52.7%{transform:translateX(-1760px)}69.3%{transform:translateX(-1840px)}78%{transform:translateX(-1920px)}to{transform:translateX(-2000px)}}.a{fill:#282d35}.c,.d{fill:#b9c0cb;white-space:pre}.d{fill:#a8cc8c}</style><g font-family="Monaco,Consolas,Menlo,'Bitstream Vera Sans Mono','Powerline Symbols',monospace" font-size="1.67"><defs><symbol id="1"><text y="1.67" class="c">$</text><text x="2.004" y="1.67" class="c">asciinema</text><text x="12.024" y="1.67" class="c">rec</text><text x="16.032" y="1.67" class="c">-c</text><text x="19.038" y="1.67" class="c">&quot;docker-compose</text><text x="35.07" y="1.67" class="c">pull&quot;</text><text x="41.082" y="1.67" class="c">docker.json</text></symbol><symbol id="2"><text y="1.67" class="d">asciinema:</text><text x="11.022" y="1.67" class="d">recording</text><text x="21.042" y="1.67" class="d">asciicast</text><text x="31.062" y="1.67" class="d">to</text><text x="34.068" y="1.67" class="d">docker.json</text></symbol><symbol id="3"><text y="1.67" class="d">asciinema:</text><text x="11.022" y="1.67" class="d">exit</text><text x="16.032" y="1.67" class="d">opened</text><text x="23.046" y="1.67" class="d">program</text><text x="31.062" y="1.67" class="d">when</text><text x="36.072" y="1.67" class="d">you&apos;re</text><text x="43.086" y="1.67" class="d">done</text></symbol><symbol id="4"><text y="1.67" class="c">Pulling</text><text x="8.016" y="1.67" class="c">zulu-jdk-15</text><text x="20.04" y="1.67" class="c">...</text></symbol><symbol id="5"><text y="1.67" class="c">Pulling</text><text x="8.016" y="1.67" class="c">zulu-jdk-11</text><text x="20.04" y="1.67" class="c">...</text></symbol><symbol id="6"><text y="1.67" class="c">Pulling</text><text x="8.016" y="1.67" class="c">zulu-jdk-8</text><text x="20.04" y="1.67" class="c">...</text><text x="24.048" y="1.67" class="d">done</text></symbol><symbol id="7"><text y="1.67" class="c">Pulling</text><text x="8.016" y="1.67" class="c">zulu-jdk-11</text><text x="20.04" y="1.67" class="c">...</text><text x="24.048" y="1.67" class="d">done</text></symbol><symbol id="8"><text y="1.67" class="c">Pulling</text><text x="8.016" y="1.67" class="c">zulu-jdk-15</text><text x="20.04" y="1.67" class="c">...</text><text x="24.048" y="1.67" class="d">done</text></symbol><symbol id="9"><text y="1.67" class="d">asciinema:</text><text x="11.022" y="1.67" class="d">recording</text><text x="21.042" y="1.67" class="d">finished</text></symbol><symbol id="10"><text y="1.67" class="d">asciinema:</text><text x="11.022" y="1.67" class="d">asciicast</text><text x="21.042" y="1.67" class="d">saved</text><text x="27.054" y="1.67" class="d">to</text><text x="30.06" y="1.67" class="d">docker.json</text></symbol><symbol id="11"><text y="1.67" class="c">^[[A^[[A</text></symbol><symbol id="a"><path fill="transparent" d="M0 0h80v9H0z"/></symbol></defs><path class="a" d="M0 0h80v17.368H0z"/><g style="animation-duration:4.26607s;animation-iteration-count:infinite;animation-name:f;animation-timing-function:steps(1,end)"><svg width="2080"><svg><use xlink:href="#a"/></svg><svg x="80"><use xlink:href="#a"/><text y="1.67" class="c">$</text></svg><svg x="160"><use xlink:href="#a"/><use xlink:href="#1"/></svg><svg x="240"><use xlink:href="#a"/><use xlink:href="#1"/><use xlink:href="#2" y="2.171"/><use xlink:href="#3" y="4.342"/></svg><svg x="320"><use xlink:href="#a"/><use xlink:href="#1"/><use xlink:href="#2" y="2.171"/><use xlink:href="#3" y="4.342"/><use xlink:href="#4" y="6.513"/><use xlink:href="#5" y="8.684"/><text y="12.525" class="c">Pulling</text><text x="8.016" y="12.525" class="c">zulu-jdk-8</text><text x="20.04" y="12.525" class="c">...</text></svg><svg x="400"><use xlink:href="#a"/><use xlink:href="#1"/><use xlink:href="#2" y="2.171"/><use xlink:href="#3" y="4.342"/><use xlink:href="#4" y="6.513"/><use xlink:href="#5" y="8.684"/><text y="12.525" class="c">Pulling</text><text x="8.016" y="12.525" class="c">zulu-jdk-8</text><text x="20.04" y="12.525" class="c">...</text><text x="24.048" y="12.525" class="c">pulling</text><text x="32.064" y="12.525" class="c">from</text><text x="37.074" y="12.525" class="c">azul/zulu-openjdk</text></svg><svg x="480"><use xlink:href="#a"/><use xlink:href="#1"/><use xlink:href="#2" y="2.171"/><use xlink:href="#3" y="4.342"/><use xlink:href="#4" y="6.513"/><use xlink:href="#5" y="8.684"/><text y="12.525" class="c">Pulling</text><text x="8.016" y="12.525" class="c">zulu-jdk-8</text><text x="20.04" y="12.525" class="c">...</text><text x="24.048" y="12.525" class="c">digest:</text><text x="32.064" y="12.525" class="c">sha256:13d16ca0335fbe1df3...</text></svg><svg x="560"><use xlink:href="#a"/><use xlink:href="#1"/><use xlink:href="#2" y="2.171"/><use xlink:href="#3" y="4.342"/><use xlink:href="#4" y="6.513"/><use xlink:href="#5" y="8.684"/><text y="12.525" class="c">Pulling</text><text x="8.016" y="12.525" class="c">zulu-jdk-8</text><text x="20.04" y="12.525" class="c">...</text><text x="24.048" y="12.525" class="c">status:</text><text x="32.064" y="12.525" class="c">image</text><text x="38.076" y="12.525" class="c">is</text><text x="41.082" y="12.525" class="c">up</text><text x="44.088" y="12.525" class="c">to</text><text x="47.094" y="12.525" class="c">date</text><text x="52.104" y="12.525" class="c">for</text><text x="56.112" y="12.525" class="c">a...</text></svg><svg x="640"><use xlink:href="#a"/><use xlink:href="#1"/><use xlink:href="#2" y="2.171"/><use xlink:href="#3" y="4.342"/><use xlink:href="#4" y="6.513"/><use xlink:href="#5" y="8.684"/></svg><svg x="720"><use xlink:href="#a"/><use xlink:href="#1"/><use xlink:href="#2" y="2.171"/><use xlink:href="#3" y="4.342"/><use xlink:href="#4" y="6.513"/><use xlink:href="#5" y="8.684"/><use xlink:href="#6" y="10.855"/></svg><svg x="800"><use xlink:href="#a"/><use xlink:href="#1"/><use xlink:href="#2" y="2.171"/><use xlink:href="#3" y="4.342"/><use xlink:href="#4" y="6.513"/><text y="10.354" class="c">Pulling</text><text x="8.016" y="10.354" class="c">zulu-jdk-11</text><text x="20.04" y="10.354" class="c">...</text><text x="24.048" y="10.354" class="c">pulling</text><text x="32.064" y="10.354" class="c">from</text><text x="37.074" y="10.354" class="c">azul/zulu-openjdk</text><use xlink:href="#6" y="10.855"/></svg><svg x="880"><use xlink:href="#a"/><use xlink:href="#1"/><use xlink:href="#2" y="2.171"/><use xlink:href="#3" y="4.342"/><use xlink:href="#4" y="6.513"/><use xlink:href="#6" y="10.855"/></svg><svg x="960"><use xlink:href="#a"/><use xlink:href="#1"/><use xlink:href="#2" y="2.171"/><use xlink:href="#3" y="4.342"/><use xlink:href="#4" y="6.513"/><text y="10.354" class="c">Pulling</text><text x="8.016" y="10.354" class="c">zulu-jdk-11</text><text x="20.04" y="10.354" class="c">...</text><text x="24.048" y="10.354" class="c">digest:</text><text x="32.064" y="10.354" class="c">sha256:315e0a2a7b6bcc2343...</text><use xlink:href="#6" y="10.855"/></svg><svg x="1040"><use xlink:href="#a"/><use xlink:href="#1"/><use xlink:href="#2" y="2.171"/><use xlink:href="#3" y="4.342"/><use xlink:href="#4" y="6.513"/><text y="10.354" class="c">Pulling</text><text x="8.016" y="10.354" class="c">zulu-jdk-11</text><text x="20.04" y="10.354" class="c">...</text><text x="24.048" y="10.354" class="c">status:</text><text x="32.064" y="10.354" class="c">image</text><text x="38.076" y="10.354" class="c">is</text><text x="41.082" y="10.354" class="c">up</text><text x="44.088" y="10.354" class="c">to</text><text x="47.094" y="10.354" class="c">date</text><text x="52.104" y="10.354" class="c">for</text><text x="56.112" y="10.354" class="c">a...</text><use xlink:href="#6" y="10.855"/></svg><svg x="1120"><use xlink:href="#a"/><use xlink:href="#1"/><use xlink:href="#2" y="2.171"/><use xlink:href="#3" y="4.342"/><use xlink:href="#4" y="6.513"/><use xlink:href="#6" y="10.855"/></svg><svg x="1200"><use xlink:href="#a"/><use xlink:href="#1"/><use xlink:href="#2" y="2.171"/><use xlink:href="#3" y="4.342"/><use xlink:href="#4" y="6.513"/><use xlink:href="#7" y="8.684"/><use xlink:href="#6" y="10.855"/></svg><svg x="1280"><use xlink:href="#a"/><use xlink:href="#1"/><use xlink:href="#2" y="2.171"/><use xlink:href="#3" y="4.342"/><text y="8.183" class="c">Pulling</text><text x="8.016" y="8.183" class="c">zulu-jdk-15</text><text x="20.04" y="8.183" class="c">...</text><text x="24.048" y="8.183" class="c">pulling</text><text x="32.064" y="8.183" class="c">from</text><text x="37.074" y="8.183" class="c">azul/zulu-openjdk</text><use xlink:href="#7" y="8.684"/><use xlink:href="#6" y="10.855"/></svg><svg x="1360"><use xlink:href="#a"/><use xlink:href="#1"/><use xlink:href="#2" y="2.171"/><use xlink:href="#3" y="4.342"/><text y="8.183" class="c">Pulling</text><text x="8.016" y="8.183" class="c">zulu-jdk-15</text><text x="20.04" y="8.183" class="c">...</text><text x="24.048" y="8.183" class="c">digest:</text><text x="32.064" y="8.183" class="c">sha256:bf2d25e46d2c9fc373...</text><use xlink:href="#7" y="8.684"/><use xlink:href="#6" y="10.855"/></svg><svg x="1440"><use xlink:href="#a"/><use xlink:href="#1"/><use xlink:href="#2" y="2.171"/><use xlink:href="#3" y="4.342"/><use xlink:href="#7" y="8.684"/><use xlink:href="#6" y="10.855"/></svg><svg x="1520"><use xlink:href="#a"/><use xlink:href="#1"/><use xlink:href="#2" y="2.171"/><use xlink:href="#3" y="4.342"/><text y="8.183" class="c">Pulling</text><text x="8.016" y="8.183" class="c">zulu-jdk-15</text><text x="20.04" y="8.183" class="c">...</text><text x="24.048" y="8.183" class="c">status:</text><text x="32.064" y="8.183" class="c">image</text><text x="38.076" y="8.183" class="c">is</text><text x="41.082" y="8.183" class="c">up</text><text x="44.088" y="8.183" class="c">to</text><text x="47.094" y="8.183" class="c">date</text><text x="52.104" y="8.183" class="c">for</text><text x="56.112" y="8.183" class="c">a...</text><use xlink:href="#7" y="8.684"/><use xlink:href="#6" y="10.855"/></svg><svg x="1600"><use xlink:href="#a"/><use xlink:href="#1"/><use xlink:href="#2" y="2.171"/><use xlink:href="#3" y="4.342"/><use xlink:href="#8" y="6.513"/><use xlink:href="#7" y="8.684"/><use xlink:href="#6" y="10.855"/></svg><svg x="1680"><use xlink:href="#a"/><use xlink:href="#1"/><use xlink:href="#2" y="2.171"/><use xlink:href="#3" y="4.342"/><use xlink:href="#8" y="6.513"/><use xlink:href="#7" y="8.684"/><use xlink:href="#6" y="10.855"/></svg><svg x="1760"><use xlink:href="#a"/><use xlink:href="#1"/><use xlink:href="#2" y="2.171"/><use xlink:href="#3" y="4.342"/><use xlink:href="#8" y="6.513"/><use xlink:href="#7" y="8.684"/><use xlink:href="#6" y="10.855"/><use xlink:href="#9" y="13.026"/><use xlink:href="#10" y="15.197"/></svg><svg x="1840"><use xlink:href="#a"/><use xlink:href="#1"/><use xlink:href="#2" y="2.171"/><use xlink:href="#3" y="4.342"/><use xlink:href="#8" y="6.513"/><use xlink:href="#7" y="8.684"/><use xlink:href="#6" y="10.855"/><use xlink:href="#9" y="13.026"/><use xlink:href="#10" y="15.197"/><text y="19.038" class="c">^[[A</text></svg><svg x="1920"><use xlink:href="#a"/><use xlink:href="#1"/><use xlink:href="#2" y="2.171"/><use xlink:href="#3" y="4.342"/><use xlink:href="#8" y="6.513"/><use xlink:href="#7" y="8.684"/><use xlink:href="#6" y="10.855"/><use xlink:href="#9" y="13.026"/><use xlink:href="#10" y="15.197"/><use xlink:href="#11" y="17.368"/></svg><svg x="2000"><use xlink:href="#a"/><use xlink:href="#2"/><use xlink:href="#3" y="2.171"/><use xlink:href="#8" y="4.342"/><use xlink:href="#7" y="6.513"/><use xlink:href="#6" y="8.684"/><use xlink:href="#9" y="10.855"/><use xlink:href="#10" y="13.026"/><use xlink:href="#11" y="15.197"/></svg></svg></g></g></svg></svg>