<svg xmlns="http://www.w3.org/2000/svg" xmlns:xlink="http://www.w3.org/1999/xlink" width="820" height="280.52"><rect width="820" height="280.52" rx="0" ry="0" class="a"/><svg height="260.52" viewBox="0 0 80 26.052" width="800" x="10" xmlns="http://www.w3.org/2000/svg" xmlns:xlink="http://www.w3.org/1999/xlink" y="10"><style>@keyframes f{0%{transform:translateX(0)}.1%{transform:translateX(-80px)}14.4%{transform:translateX(-160px)}14.5%{transform:translateX(-240px)}42.9%{transform:translateX(-320px)}57.2%{transform:translateX(-400px)}71.5%{transform:translateX(-480px)}to{transform:translateX(-560px)}}.a{fill:#282d35}.c,.d{fill:#b9c0cb;white-space:pre}.d{fill:#a8cc8c}</style><g font-family="Monaco,Consolas,Menlo,'Bitstream Vera Sans Mono','Powerline Symbols',monospace" font-size="1.67"><defs><symbol id="1"><text y="1.67" class="c">$</text><text x="2.004" y="1.67" class="c">echo</text><text x="7.014" y="1.67" class="c">&quot;Pulling</text><text x="16.032" y="1.67" class="c">zulu-jdk-15</text><text x="28.056" y="1.67" class="c">...</text><text x="32.064" y="1.67" class="c">downloading&quot;</text><text x="45.09" y="1.67" class="c">&amp;&amp;</text><text x="48.096" y="1.67" class="c">\</text></symbol><symbol id="2"><text y="1.67" class="c">&gt;</text><text x="2.004" y="1.67" class="c">echo</text><text x="7.014" y="1.67" class="c">&quot;Pulling</text><text x="16.032" y="1.67" class="c">zulu-jdk-11</text><text x="28.056" y="1.67" class="c">...</text><text x="32.064" y="1.67" class="c">downloading&quot;</text><text x="45.09" y="1.67" class="c">&amp;&amp;</text><text x="48.096" y="1.67" class="c">\</text></symbol><symbol id="3"><text y="1.67" class="c">&gt;</text><text x="2.004" y="1.67" class="c">echo</text><text x="7.014" y="1.67" class="c">&quot;Pulling</text><text x="16.032" y="1.67" class="c">zulu-jdk-8</text><text x="28.056" y="1.67" class="c">...</text><text x="32.064" y="1.67" class="c">downloading&quot;</text><text x="45.09" y="1.67" class="c">&amp;&amp;</text><text x="48.096" y="1.67" class="c">\</text></symbol><symbol id="4"><text y="1.67" class="c">&gt;</text><text x="2.004" y="1.67" class="c">sleep</text><text x="8.016" y="1.67" class="c">2</text><text x="10.02" y="1.67" class="c">&amp;&amp;</text><text x="13.026" y="1.67" class="c">\</text></symbol><symbol id="5"><text y="1.67" class="c">&gt;</text><text x="2.004" y="1.67" class="c">echo</text><text x="7.014" y="1.67" class="c">-e</text><text x="10.02" y="1.67" class="c">&quot;\e[2A\e[24C\e[32mdone\e[0m\e[K&quot;</text><text x="43.086" y="1.67" class="c">&amp;&amp;</text><text x="46.092" y="1.67" class="c">\</text></symbol><symbol id="6"><text y="1.67" class="c">&gt;</text><text x="2.004" y="1.67" class="c">sleep</text><text x="8.016" y="1.67" class="c">1</text><text x="10.02" y="1.67" class="c">&amp;&amp;</text><text x="13.026" y="1.67" class="c">\</text></symbol><symbol id="7"><text y="1.67" class="c">&gt;</text><text x="2.004" y="1.67" class="c">echo</text><text x="7.014" y="1.67" class="c">-e</text><text x="10.02" y="1.67" class="c">&quot;\e[24C\e[32mdone\e[0m\e[K&quot;</text><text x="38.076" y="1.67" class="c">&amp;&amp;</text><text x="41.082" y="1.67" class="c">\</text></symbol><symbol id="8"><text y="1.67" class="c">&gt;</text><text x="2.004" y="1.67" class="c">echo</text><text x="7.014" y="1.67" class="c">-e</text><text x="10.02" y="1.67" class="c">&quot;\e[3A\e[24C\e[32mdone\e[0m\e[K\n\n&quot;</text></symbol><symbol id="9"><text y="1.67" class="c">Pulling</text><text x="8.016" y="1.67" class="c">zulu-jdk-15</text><text x="20.04" y="1.67" class="c">...</text><text x="24.048" y="1.67" class="c">downloading</text></symbol><symbol id="10"><text y="1.67" class="c">Pulling</text><text x="8.016" y="1.67" class="c">zulu-jdk-8</text><text x="20.04" y="1.67" class="c">...</text><text x="24.048" y="1.67" class="c">downloading</text></symbol><symbol id="11"><text y="1.67" class="c">Pulling</text><text x="8.016" y="1.67" class="c">zulu-jdk-11</text><text x="20.04" y="1.67" class="c">...</text><text x="24.048" y="1.67" class="d">done</text></symbol><symbol id="12"><text y="1.67" class="c">Pulling</text><text x="8.016" y="1.67" class="c">zulu-jdk-8</text><text x="20.04" y="1.67" class="c">...</text><text x="24.048" y="1.67" class="d">done</text></symbol><symbol id="13"><text y="1.67" class="c">Pulling</text><text x="8.016" y="1.67" class="c">zulu-jdk-15</text><text x="20.04" y="1.67" class="c">...</text><text x="24.048" y="1.67" class="d">done</text></symbol><symbol id="a"><path fill="transparent" d="M0 0h80v13H0z"/></symbol></defs><path class="a" d="M0 0h80v26.052H0z"/><g style="animation-duration:7.043149s;animation-iteration-count:infinite;animation-name:f;animation-timing-function:steps(1,end)"><svg width="640"><svg><use xlink:href="#a"/></svg><svg x="80"><use xlink:href="#a"/><text y="1.67" class="c">$</text></svg><svg x="160"><use xlink:href="#a"/><use xlink:href="#1"/><use xlink:href="#2" y="2.171"/><use xlink:href="#3" y="4.342"/><use xlink:href="#4" y="6.513"/><use xlink:href="#5" y="8.684"/><use xlink:href="#6" y="10.855"/><use xlink:href="#7" y="13.026"/><use xlink:href="#6" y="15.197"/><use xlink:href="#8" y="17.368"/></svg><svg x="240"><use xlink:href="#a"/><use xlink:href="#1"/><use xlink:href="#2" y="2.171"/><use xlink:href="#3" y="4.342"/><use xlink:href="#4" y="6.513"/><use xlink:href="#5" y="8.684"/><use xlink:href="#6" y="10.855"/><use xlink:href="#7" y="13.026"/><use xlink:href="#6" y="15.197"/><use xlink:href="#8" y="17.368"/><use xlink:href="#9" y="19.539"/><text y="23.38" class="c">Pulling</text><text x="8.016" y="23.38" class="c">zulu-jdk-11</text><text x="20.04" y="23.38" class="c">...</text><text x="24.048" y="23.38" class="c">downloading</text><use xlink:href="#10" y="23.881"/></svg><svg x="320"><use xlink:href="#a"/><use xlink:href="#1"/><use xlink:href="#2" y="2.171"/><use xlink:href="#3" y="4.342"/><use xlink:href="#4" y="6.513"/><use xlink:href="#5" y="8.684"/><use xlink:href="#6" y="10.855"/><use xlink:href="#7" y="13.026"/><use xlink:href="#6" y="15.197"/><use xlink:href="#8" y="17.368"/><use xlink:href="#9" y="19.539"/><use xlink:href="#11" y="21.71"/><use xlink:href="#10" y="23.881"/></svg><svg x="400"><use xlink:href="#a"/><use xlink:href="#1"/><use xlink:href="#2" y="2.171"/><use xlink:href="#3" y="4.342"/><use xlink:href="#4" y="6.513"/><use xlink:href="#5" y="8.684"/><use xlink:href="#6" y="10.855"/><use xlink:href="#7" y="13.026"/><use xlink:href="#6" y="15.197"/><use xlink:href="#8" y="17.368"/><use xlink:href="#9" y="19.539"/><use xlink:href="#11" y="21.71"/><use xlink:href="#12" y="23.881"/></svg><svg x="480"><use xlink:href="#a"/><use xlink:href="#1"/><use xlink:href="#2" y="2.171"/><use xlink:href="#3" y="4.342"/><use xlink:href="#4" y="6.513"/><use xlink:href="#5" y="8.684"/><use xlink:href="#6" y="10.855"/><use xlink:href="#7" y="13.026"/><use xlink:href="#6" y="15.197"/><use xlink:href="#8" y="17.368"/><use xlink:href="#13" y="19.539"/><use xlink:href="#11" y="21.71"/><use xlink:href="#12" y="23.881"/></svg><svg x="560"><use xlink:href="#a"/><use xlink:href="#2"/><use xlink:href="#3" y="2.171"/><use xlink:href="#4" y="4.342"/><use xlink:href="#5" y="6.513"/><use xlink:href="#6" y="8.684"/><use xlink:href="#7" y="10.855"/><use xlink:href="#6" y="13.026"/><use xlink:href="#8" y="15.197"/><use xlink:href="#13" y="17.368"/><use xlink:href="#11" y="19.539"/><use xlink:href="#12" y="21.71"/></svg></svg></g></g></svg></svg>