<svg xmlns="http://www.w3.org/2000/svg" xmlns:xlink="http://www.w3.org/1999/xlink" width="820" height="128.55"><rect width="820" height="128.55" rx="0" ry="0" class="a"/><svg height="108.55" viewBox="0 0 80 10.855" width="800" x="10" xmlns="http://www.w3.org/2000/svg" xmlns:xlink="http://www.w3.org/1999/xlink" y="10"><style>.a{fill:#282d35}.d{fill:#b9c0cb;white-space:pre}</style><g font-family="Monaco,Consolas,Menlo,'Bitstream Vera Sans Mono','Powerline Symbols',monospace" font-size="1.67"><defs><symbol id="a"><path fill="transparent" d="M0 0h80v6H0z"/></symbol></defs><path class="a" d="M0 0h80v10.855H0z"/><svg width="80"><svg><use xlink:href="#a"/><text y="1.67" class="d">$</text><text x="2.004" y="1.67" class="d">unbuffer</text><text x="11.022" y="1.67" class="d">docker-compose</text><text x="26.052" y="1.67" class="d">pull</text><text x="31.062" y="1.67" class="d">|</text><text x="33.066" y="1.67" class="d">sed</text><text x="37.074" y="1.67" class="d">-r</text><text x="40.08" y="1.67" class="d">&apos;s/\x1b\[/[/g&apos;</text><text y="3.841" class="d">Pulling</text><text x="8.016" y="3.841" class="d">zulu-jdk-15</text><text x="20.04" y="3.841" class="d">...</text><text y="6.012" class="d">Pulling</text><text x="8.016" y="6.012" class="d">zulu-jdk-11</text><text x="20.04" y="6.012" class="d">...</text><text y="8.183" class="d">Pulling</text><text x="8.016" y="8.183" class="d">zulu-jdk-8</text><text x="20.04" y="8.183" class="d">...</text><text y="10.354" class="d">e[2Bing</text><text x="8.016" y="10.354" class="d">zulu-jdk-11</text><text x="20.04" y="10.354" class="d">...</text><text x="24.048" y="10.354" class="d">e[32mdonee[0m</text><text x="38.076" y="10.354" class="d">is</text><text x="41.082" y="10.354" class="d">up</text><text x="44.088" y="10.354" class="d">to</text><text x="47.094" y="10.354" class="d">date</text><text x="52.104" y="10.354" class="d">for</text><text x="56.112" y="10.354" class="d">a...</text></svg></svg></g></svg></svg>